<mxfile host="www.draw.io" modified="2019-11-05T17:02:58.832Z" agent="Mozilla/5.0 (Macintosh; Intel Mac OS X 10_12_6) AppleWebKit/537.36 (KHTML, like Gecko) Chrome/77.0.3865.90 Safari/537.36" etag="U_f88W5fd-GRdH-TkKik" version="12.2.0" type="github" pages="1">
  <diagram id="PLrUu4iucB1gCnoqMBO_" name="Page-1">
    <mxGraphModel dx="786" dy="743" grid="1" gridSize="10" guides="1" tooltips="1" connect="1" arrows="1" fold="1" page="1" pageScale="1" pageWidth="1654" pageHeight="1169" math="0" shadow="0">
      <root>
        <mxCell id="0"/>
        <mxCell id="1" parent="0"/>
        <mxCell id="Lo9OmRsVtHrHbYx5dEMw-1" value="" style="shape=cylinder;whiteSpace=wrap;html=1;boundedLbl=1;backgroundOutline=1;" vertex="1" parent="1">
          <mxGeometry x="315" y="186" width="118" height="164" as="geometry"/>
        </mxCell>
        <mxCell id="Lo9OmRsVtHrHbYx5dEMw-2" value="File System&lt;br&gt;Staging Area" style="text;html=1;strokeColor=none;fillColor=none;align=center;verticalAlign=middle;whiteSpace=wrap;rounded=0;" vertex="1" parent="1">
          <mxGeometry x="333" y="204" width="80" height="20" as="geometry"/>
        </mxCell>
        <mxCell id="Lo9OmRsVtHrHbYx5dEMw-3" value="RDF/XML" style="shape=note;whiteSpace=wrap;html=1;backgroundOutline=1;darkOpacity=0.05;size=11;" vertex="1" parent="1">
          <mxGeometry x="333" y="250" width="78" height="20" as="geometry"/>
        </mxCell>
        <mxCell id="Lo9OmRsVtHrHbYx5dEMw-4" value="RDF/XML" style="shape=note;whiteSpace=wrap;html=1;backgroundOutline=1;darkOpacity=0.05;size=11;" vertex="1" parent="1">
          <mxGeometry x="250" y="430" width="60" height="40" as="geometry"/>
        </mxCell>
        <mxCell id="Lo9OmRsVtHrHbYx5dEMw-5" value="RDF/XML" style="shape=note;whiteSpace=wrap;html=1;backgroundOutline=1;darkOpacity=0.05;size=11;" vertex="1" parent="1">
          <mxGeometry x="333" y="280" width="78" height="20" as="geometry"/>
        </mxCell>
        <mxCell id="Lo9OmRsVtHrHbYx5dEMw-6" value="RDF/XML" style="shape=note;whiteSpace=wrap;html=1;backgroundOutline=1;darkOpacity=0.05;size=11;dashed=1;" vertex="1" parent="1">
          <mxGeometry x="333" y="310" width="78" height="20" as="geometry"/>
        </mxCell>
        <mxCell id="Lo9OmRsVtHrHbYx5dEMw-8" value="Apache Manifold" style="rounded=0;whiteSpace=wrap;html=1;" vertex="1" parent="1">
          <mxGeometry x="480" y="238" width="120" height="60" as="geometry"/>
        </mxCell>
      </root>
    </mxGraphModel>
  </diagram>
</mxfile>
